<?xml version="1.0" standalone="no"?>
<!DOCTYPE svg PUBLIC "-//W3C//DTD SVG 20010904//EN"
 "http://www.w3.org/TR/2001/REC-SVG-20010904/DTD/svg10.dtd">
<svg version="1.0" xmlns="http://www.w3.org/2000/svg"
 width="512.000000pt" height="512.000000pt" viewBox="0 0 512.000000 512.000000"
 preserveAspectRatio="xMidYMid meet">
<metadata>
Created by potrace 1.14, written by Peter Selinger 2001-2017
</metadata>
<g transform="translate(0.000000,512.000000) scale(0.100000,-0.100000)"
fill="#000000" stroke="none">
<path d="M2537 4535 c-1 -2 -47 -5 -102 -9 -425 -25 -845 -213 -1131 -504
-220 -225 -381 -518 -463 -847 -22 -88 -21 -83 -46 -230 -20 -117 -28 -498
-13 -656 27 -285 120 -592 249 -820 349 -616 979 -919 1794 -865 147 10 210
18 303 40 9 2 37 9 62 15 134 32 289 92 395 154 28 17 66 39 85 49 54 31 170
121 230 180 203 197 336 430 403 708 27 108 32 137 43 253 l7 67 -499 0 -499
0 -22 -93 c-35 -144 -91 -246 -193 -347 -130 -131 -268 -190 -455 -194 -247
-7 -459 90 -601 275 -102 133 -184 334 -210 514 -3 17 -7 40 -9 52 -24 107
-24 459 -1 593 3 14 7 41 10 60 3 19 8 46 11 60 3 14 8 35 11 47 10 51 69 202
100 260 149 277 369 412 672 412 353 0 597 -214 679 -594 l9 -40 498 0 498 0
-6 89 c-4 49 -9 92 -11 96 -2 3 -7 29 -11 56 -10 74 -60 237 -102 328 -166
367 -473 642 -871 780 -218 76 -405 107 -674 111 -75 1 -138 1 -140 0z"/>
</g>
</svg>
